<?xml version="1.0" encoding="UTF-8"?>
<svg id="g" width="100%" xmlns="http://www.w3.org/2000/svg" style="max-width: 540px;" viewBox="-8 -8 295.703125 1066" role="graphics-document document" aria-roledescription="flowchart-v2"><style>#g{font-family:"trebuchet ms",verdana,arial,sans-serif;font-size:16px;fill:#333;}#g .error-icon{fill:#552222;}#g .error-text{fill:#552222;stroke:#552222;}#g .edge-thickness-normal{stroke-width:2px;}#g .edge-thickness-thick{stroke-width:3.5px;}#g .edge-pattern-solid{stroke-dasharray:0;}#g .edge-pattern-dashed{stroke-dasharray:3;}#g .edge-pattern-dotted{stroke-dasharray:2;}#g .marker{fill:#333333;stroke:#333333;}#g .marker.cross{stroke:#333333;}#g svg{font-family:"trebuchet ms",verdana,arial,sans-serif;font-size:16px;}#g .label{font-family:"trebuchet ms",verdana,arial,sans-serif;color:#333;}#g .cluster-label text{fill:#333;}#g .cluster-label span,#g p{color:#333;}#g .label text,#g span,#g p{fill:#333;color:#333;}#g .node rect,#g .node circle,#g .node ellipse,#g .node polygon,#g .node path{fill:#ECECFF;stroke:#9370DB;stroke-width:1px;}#g .flowchart-label text{text-anchor:middle;}#g .node .katex path{fill:#000;stroke:#000;stroke-width:1px;}#g .node .label{text-align:center;}#g .node.clickable{cursor:pointer;}#g .arrowheadPath{fill:#333333;}#g .edgePath .path{stroke:#333333;stroke-width:2.0px;}#g .flowchart-link{stroke:#333333;fill:none;}#g .edgeLabel{background-color:#e8e8e8;text-align:center;}#g .edgeLabel rect{opacity:0.5;background-color:#e8e8e8;fill:#e8e8e8;}#g .labelBkg{background-color:rgba(232, 232, 232, 0.5);}#g .cluster rect{fill:#ffffde;stroke:#aaaa33;stroke-width:1px;}#g .cluster text{fill:#333;}#g .cluster span,#g p{color:#333;}#g div.mermaidTooltip{position:absolute;text-align:center;max-width:200px;padding:2px;font-family:"trebuchet ms",verdana,arial,sans-serif;font-size:12px;background:hsl(80, 100%, 96.2745098039%);border:1px solid #aaaa33;border-radius:2px;pointer-events:none;z-index:100;}#g .flowchartTitleText{text-anchor:middle;font-size:18px;fill:#333;}#g :root{--mermaid-font-family:"trebuchet ms",verdana,arial,sans-serif;}</style><g><marker id="g_flowchart-pointEnd" class="marker flowchart" viewBox="0 0 10 10" refX="6" refY="5" markerUnits="userSpaceOnUse" markerWidth="12" markerHeight="12" orient="auto"><path d="M 0 0 L 10 5 L 0 10 z" class="arrowMarkerPath" style="stroke-width: 1; stroke-dasharray: 1, 0;"></path></marker><marker id="g_flowchart-pointStart" class="marker flowchart" viewBox="0 0 10 10" refX="4.5" refY="5" markerUnits="userSpaceOnUse" markerWidth="12" markerHeight="12" orient="auto"><path d="M 0 5 L 10 10 L 10 0 z" class="arrowMarkerPath" style="stroke-width: 1; stroke-dasharray: 1, 0;"></path></marker><marker id="g_flowchart-circleEnd" class="marker flowchart" viewBox="0 0 10 10" refX="11" refY="5" markerUnits="userSpaceOnUse" markerWidth="11" markerHeight="11" orient="auto"><circle cx="5" cy="5" r="5" class="arrowMarkerPath" style="stroke-width: 1; stroke-dasharray: 1, 0;"></circle></marker><marker id="g_flowchart-circleStart" class="marker flowchart" viewBox="0 0 10 10" refX="-1" refY="5" markerUnits="userSpaceOnUse" markerWidth="11" markerHeight="11" orient="auto"><circle cx="5" cy="5" r="5" class="arrowMarkerPath" style="stroke-width: 1; stroke-dasharray: 1, 0;"></circle></marker><marker id="g_flowchart-crossEnd" class="marker cross flowchart" viewBox="0 0 11 11" refX="12" refY="5.2" markerUnits="userSpaceOnUse" markerWidth="11" markerHeight="11" orient="auto"><path d="M 1,1 l 9,9 M 10,1 l -9,9" class="arrowMarkerPath" style="stroke-width: 2; stroke-dasharray: 1, 0;"></path></marker><marker id="g_flowchart-crossStart" class="marker cross flowchart" viewBox="0 0 11 11" refX="-1" refY="5.2" markerUnits="userSpaceOnUse" markerWidth="11" markerHeight="11" orient="auto"><path d="M 1,1 l 9,9 M 10,1 l -9,9" class="arrowMarkerPath" style="stroke-width: 2; stroke-dasharray: 1, 0;"></path></marker><g class="root"><g class="clusters"></g><g class="edgePaths"><path d="M139.852,34L139.852,38.167C139.852,42.333,139.852,50.667,139.852,58.117C139.852,65.567,139.852,72.133,139.852,75.417L139.852,78.7" id="L-A-B-0" class=" edge-thickness-normal edge-pattern-solid flowchart-link LS-A LE-B" style="fill:none;" marker-end="url(#g_flowchart-pointEnd)"></path><path d="M139.852,150L139.852,154.167C139.852,158.333,139.852,166.667,139.852,174.117C139.852,181.567,139.852,188.133,139.852,191.417L139.852,194.7" id="L-B-C-0" class=" edge-thickness-normal edge-pattern-solid flowchart-link LS-B LE-C" style="fill:none;" marker-end="url(#g_flowchart-pointEnd)"></path><path d="M139.852,250L139.852,254.167C139.852,258.333,139.852,266.667,139.852,274.117C139.852,281.567,139.852,288.133,139.852,291.417L139.852,294.7" id="L-C-D-0" class=" edge-thickness-normal edge-pattern-solid flowchart-link LS-C LE-D" style="fill:none;" marker-end="url(#g_flowchart-pointEnd)"></path><path d="M139.852,350L139.852,354.167C139.852,358.333,139.852,366.667,139.852,374.117C139.852,381.567,139.852,388.133,139.852,391.417L139.852,394.7" id="L-D-E-0" class=" edge-thickness-normal edge-pattern-solid flowchart-link LS-D LE-E" style="fill:none;" marker-end="url(#g_flowchart-pointEnd)"></path><path d="M139.852,450L139.852,454.167C139.852,458.333,139.852,466.667,139.852,474.117C139.852,481.567,139.852,488.133,139.852,491.417L139.852,494.7" id="L-E-F-0" class=" edge-thickness-normal edge-pattern-solid flowchart-link LS-E LE-F" style="fill:none;" marker-end="url(#g_flowchart-pointEnd)"></path><path d="M139.852,550L139.852,554.167C139.852,558.333,139.852,566.667,139.852,574.117C139.852,581.567,139.852,588.133,139.852,591.417L139.852,594.7" id="L-F-G-0" class=" edge-thickness-normal edge-pattern-solid flowchart-link LS-F LE-G" style="fill:none;" marker-end="url(#g_flowchart-pointEnd)"></path><path d="M139.852,650L139.852,654.167C139.852,658.333,139.852,666.667,139.852,674.117C139.852,681.567,139.852,688.133,139.852,691.417L139.852,694.7" id="L-G-H-0" class=" edge-thickness-normal edge-pattern-solid flowchart-link LS-G LE-H" style="fill:none;" marker-end="url(#g_flowchart-pointEnd)"></path><path d="M139.852,750L139.852,754.167C139.852,758.333,139.852,766.667,139.852,774.117C139.852,781.567,139.852,788.133,139.852,791.417L139.852,794.7" id="L-H-I-0" class=" edge-thickness-normal edge-pattern-solid flowchart-link LS-H LE-I" style="fill:none;" marker-end="url(#g_flowchart-pointEnd)"></path><path d="M139.852,850L139.852,854.167C139.852,858.333,139.852,866.667,139.852,874.117C139.852,881.567,139.852,888.133,139.852,891.417L139.852,894.7" id="L-I-J-0" class=" edge-thickness-normal edge-pattern-solid flowchart-link LS-I LE-J" style="fill:none;" marker-end="url(#g_flowchart-pointEnd)"></path><path d="M139.852,950L139.852,954.167C139.852,958.333,139.852,966.667,139.852,974.117C139.852,981.567,139.852,988.133,139.852,991.417L139.852,994.7" id="L-J-K-0" class=" edge-thickness-normal edge-pattern-solid flowchart-link LS-J LE-K" style="fill:none;" marker-end="url(#g_flowchart-pointEnd)"></path></g><g class="edgeLabels"><g class="edgeLabel"><g class="label" transform="translate(0, 0)"><rect rx="0" ry="0" width="0" height="0"></rect><text style=""><tspan xml:space="preserve" dy="1em" x="0" class="row"></tspan></text></g></g><g class="edgeLabel"><g class="label" transform="translate(0, 0)"><rect rx="0" ry="0" width="0" height="0"></rect><text style=""><tspan xml:space="preserve" dy="1em" x="0" class="row"></tspan></text></g></g><g class="edgeLabel"><g class="label" transform="translate(0, 0)"><rect rx="0" ry="0" width="0" height="0"></rect><text style=""><tspan xml:space="preserve" dy="1em" x="0" class="row"></tspan></text></g></g><g class="edgeLabel"><g class="label" transform="translate(0, 0)"><rect rx="0" ry="0" width="0" height="0"></rect><text style=""><tspan xml:space="preserve" dy="1em" x="0" class="row"></tspan></text></g></g><g class="edgeLabel"><g class="label" transform="translate(0, 0)"><rect rx="0" ry="0" width="0" height="0"></rect><text style=""><tspan xml:space="preserve" dy="1em" x="0" class="row"></tspan></text></g></g><g class="edgeLabel"><g class="label" transform="translate(0, 0)"><rect rx="0" ry="0" width="0" height="0"></rect><text style=""><tspan xml:space="preserve" dy="1em" x="0" class="row"></tspan></text></g></g><g class="edgeLabel"><g class="label" transform="translate(0, 0)"><rect rx="0" ry="0" width="0" height="0"></rect><text style=""><tspan xml:space="preserve" dy="1em" x="0" class="row"></tspan></text></g></g><g class="edgeLabel"><g class="label" transform="translate(0, 0)"><rect rx="0" ry="0" width="0" height="0"></rect><text style=""><tspan xml:space="preserve" dy="1em" x="0" class="row"></tspan></text></g></g><g class="edgeLabel"><g class="label" transform="translate(0, 0)"><rect rx="0" ry="0" width="0" height="0"></rect><text style=""><tspan xml:space="preserve" dy="1em" x="0" class="row"></tspan></text></g></g><g class="edgeLabel"><g class="label" transform="translate(0, 0)"><rect rx="0" ry="0" width="0" height="0"></rect><text style=""><tspan xml:space="preserve" dy="1em" x="0" class="row"></tspan></text></g></g></g><g class="nodes"><g class="node default default flowchart-label" id="flowchart-A-0" data-node="true" data-id="A" transform="translate(139.8515625, 17)"><rect class="basic label-container" style="fill:#e3f2fd;stroke:#1976d2;" rx="0" ry="0" x="-123.2734375" y="-17" width="246.546875" height="34"></rect><g class="label" style="" transform="translate(0, -9.5)"><rect></rect><text style=""><tspan xml:space="preserve" dy="1em" x="0" class="row">Download the IoTSentinel image</tspan></text></g></g><g class="node default default flowchart-label" id="flowchart-B-1" data-node="true" data-id="B" transform="translate(139.8515625, 117)"><rect class="basic label-container" style="fill:#fff3e0;stroke:#f57c00;" rx="0" ry="0" x="-110.03125" y="-33" width="220.0625" height="66"></rect><g class="label" style="" transform="translate(0, -25.5)"><rect></rect><text style=""><tspan xml:space="preserve" dy="1em" x="0" class="row">Flash it to the SD card with</tspan><tspan xml:space="preserve" dy="1em" x="0" class="row">Raspberry Pi Imager</tspan><tspan xml:space="preserve" dy="1em" x="0" class="row">Skip every prompt - click NO</tspan></text></g></g><g class="node default default flowchart-label" id="flowchart-C-3" data-node="true" data-id="C" transform="translate(139.8515625, 225)"><rect class="basic label-container" style="" rx="0" ry="0" x="-135.21875" y="-25" width="270.4375" height="50"></rect><g class="label" style="" transform="translate(0, -17.5)"><rect></rect><text style=""><tspan xml:space="preserve" dy="1em" x="0" class="row">Put the card in the Pi and power on</tspan><tspan xml:space="preserve" dy="1em" x="0" class="row">No screen or keyboard needed</tspan></text></g></g><g class="node default default flowchart-label" id="flowchart-D-5" data-node="true" data-id="D" transform="translate(139.8515625, 325)"><rect class="basic label-container" style="" rx="0" ry="0" x="-83.890625" y="-25" width="167.78125" height="50"></rect><g class="label" style="" transform="translate(0, -17.5)"><rect></rect><text style=""><tspan xml:space="preserve" dy="1em" x="0" class="row">Wait about 2 minutes</tspan><tspan xml:space="preserve" dy="1em" x="0" class="row">(first-boot setup)</tspan></text></g></g><g class="node default default flowchart-label" id="flowchart-E-7" data-node="true" data-id="E" transform="translate(139.8515625, 425)"><rect class="basic label-container" style="" rx="0" ry="0" x="-133.9140625" y="-25" width="267.828125" height="50"></rect><g class="label" style="" transform="translate(0, -17.5)"><rect></rect><text style=""><tspan xml:space="preserve" dy="1em" x="0" class="row">On your phone, join the open Wi-Fi</tspan><tspan xml:space="preserve" dy="1em" x="0" class="row">named IoTSentinel-Setup</tspan></text></g></g><g class="node default default flowchart-label" id="flowchart-F-9" data-node="true" data-id="F" transform="translate(139.8515625, 525)"><rect class="basic label-container" style="" rx="0" ry="0" x="-111.5" y="-25" width="223" height="50"></rect><g class="label" style="" transform="translate(0, -17.5)"><rect></rect><text style=""><tspan xml:space="preserve" dy="1em" x="0" class="row">Open the setup page</tspan><tspan xml:space="preserve" dy="1em" x="0" class="row">http://10.42.0.1:8050/setup</tspan></text></g></g><g class="node default default flowchart-label" id="flowchart-G-11" data-node="true" data-id="G" transform="translate(139.8515625, 625)"><rect class="basic label-container" style="" rx="0" ry="0" x="-113.1640625" y="-25" width="226.328125" height="50"></rect><g class="label" style="" transform="translate(0, -17.5)"><rect></rect><text style=""><tspan xml:space="preserve" dy="1em" x="0" class="row">Wizard: pick your home Wi-Fi</tspan><tspan xml:space="preserve" dy="1em" x="0" class="row">and set your password</tspan></text></g></g><g class="node default default flowchart-label" id="flowchart-H-13" data-node="true" data-id="H" transform="translate(139.8515625, 725)"><rect class="basic label-container" style="" rx="0" ry="0" x="-139.8515625" y="-25" width="279.703125" height="50"></rect><g class="label" style="" transform="translate(0, -17.5)"><rect></rect><text style=""><tspan xml:space="preserve" dy="1em" x="0" class="row">The Pi joins your home Wi-Fi</tspan><tspan xml:space="preserve" dy="1em" x="0" class="row">Reconnect your phone to home Wi-Fi</tspan></text></g></g><g class="node default default flowchart-label" id="flowchart-I-15" data-node="true" data-id="I" transform="translate(139.8515625, 825)"><rect class="basic label-container" style="" rx="0" ry="0" x="-118.203125" y="-25" width="236.40625" height="50"></rect><g class="label" style="" transform="translate(0, -17.5)"><rect></rect><text style=""><tspan xml:space="preserve" dy="1em" x="0" class="row">Finish the wizard</tspan><tspan xml:space="preserve" dy="1em" x="0" class="row">(alerts, mode, optional extras)</tspan></text></g></g><g class="node default default flowchart-label" id="flowchart-J-17" data-node="true" data-id="J" transform="translate(139.8515625, 925)"><rect class="basic label-container" style="" rx="0" ry="0" x="-112.1015625" y="-25" width="224.203125" height="50"></rect><g class="label" style="" transform="translate(0, -17.5)"><rect></rect><text style=""><tspan xml:space="preserve" dy="1em" x="0" class="row">Open the dashboard</tspan><tspan xml:space="preserve" dy="1em" x="0" class="row">http://iotsentinel.local:8050</tspan></text></g></g><g class="node default default flowchart-label" id="flowchart-K-19" data-node="true" data-id="K" transform="translate(139.8515625, 1025)"><rect class="basic label-container" style="fill:#e8f5e9;stroke:#388e3c;" rx="0" ry="0" x="-115.0390625" y="-25" width="230.078125" height="50"></rect><g class="label" style="" transform="translate(0, -17.5)"><rect></rect><text style=""><tspan xml:space="preserve" dy="1em" x="0" class="row">Live monitoring:</tspan><tspan xml:space="preserve" dy="1em" x="0" class="row">devices, alerts, security score</tspan></text></g></g></g></g></g></svg>
